<svg viewBox="0 0 80 80" xmlns="http://www.w3.org/2000/svg">
  <defs>
    <linearGradient id="filmGradient" x1="0%" y1="0%" x2="100%" y2="100%">
      <stop offset="0%" style="stop-color:#10196E;stop-opacity:1" />
      <stop offset="50%" style="stop-color:#121660;stop-opacity:1" />
      <stop offset="100%" style="stop-color:#07072B;stop-opacity:1" />
    </linearGradient>
    <filter id="shadow" x="-50%" y="-50%" width="200%" height="200%">
      <feDropShadow dx="2" dy="2" stdDeviation="3" flood-color="#07072B" flood-opacity="0.3"/>
    </filter>
  </defs>
  
  <!-- Film strip background -->
  <rect x="10" y="10" width="60" height="60" rx="8" fill="url(#filmGradient)" filter="url(#shadow)"/>
  
  <!-- Film strip holes -->
  <circle cx="20" cy="20" r="3" fill="white" opacity="0.9"/>
  <circle cx="20" cy="35" r="3" fill="white" opacity="0.9"/>
  <circle cx="20" cy="50" r="3" fill="white" opacity="0.9"/>
  <circle cx="20" cy="60" r="3" fill="white" opacity="0.9"/>
  
  <circle cx="60" cy="20" r="3" fill="white" opacity="0.9"/>
  <circle cx="60" cy="35" r="3" fill="white" opacity="0.9"/>
  <circle cx="60" cy="50" r="3" fill="white" opacity="0.9"/>
  <circle cx="60" cy="60" r="3" fill="white" opacity="0.9"/>
  
  <!-- Play button icon -->
  <polygon points="35,30 35,50 50,40" fill="white" opacity="0.95"/>
  
  <!-- Small decorative film frames -->
  <rect x="30" y="22" width="8" height="6" rx="1" fill="white" opacity="0.3"/>
  <rect x="42" y="22" width="8" height="6" rx="1" fill="white" opacity="0.3"/>
  <rect x="30" y="52" width="8" height="6" rx="1" fill="white" opacity="0.3"/>
  <rect x="42" y="52" width="8" height="6" rx="1" fill="white" opacity="0.3"/>
</svg>